<?xml version="1.0"?>
<svg xmlns="http://www.w3.org/2000/svg" height="512px" viewBox="0 -40 480 480" width="512px" class=""><g><path d="m440 0h-400c-22.082031.0273438-39.9726562 17.917969-40 40v96c.0273438 22.082031 17.917969 39.972656 40 40h400c22.082031-.027344 39.972656-17.917969 40-40v-96c-.027344-22.082031-17.917969-39.9726562-40-40zm24 136c0 13.253906-10.746094 24-24 24h-400c-13.253906 0-24-10.746094-24-24v-96c0-13.253906 10.746094-24 24-24h400c13.253906 0 24 10.746094 24 24zm0 0" data-original="#000000" class="active-path" data-old_color="#000000" fill="#4486FF"/><path d="m440 32h-48c-4.417969 0-8 3.582031-8 8v32c0 4.417969 3.582031 8 8 8h48c4.417969 0 8-3.582031 8-8v-32c0-4.417969-3.582031-8-8-8zm-8 32h-32v-16h32zm0 0" data-original="#000000" class="active-path" data-old_color="#000000" fill="#4486FF"/><path d="m344 64h16c4.417969 0 8-3.582031 8-8s-3.582031-8-8-8h-16c-4.417969 0-8 3.582031-8 8s3.582031 8 8 8zm0 0" data-original="#000000" class="active-path" data-old_color="#000000" fill="#4486FF"/><path d="m296 64h16c4.417969 0 8-3.582031 8-8s-3.582031-8-8-8h-16c-4.417969 0-8 3.582031-8 8s3.582031 8 8 8zm0 0" data-original="#000000" class="active-path" data-old_color="#000000" fill="#4486FF"/><path d="m440 96h-400c-4.417969 0-8 3.582031-8 8s3.582031 8 8 8h400c4.417969 0 8-3.582031 8-8s-3.582031-8-8-8zm0 0" data-original="#000000" class="active-path" data-old_color="#000000" fill="#4486FF"/><path d="m440 128h-400c-4.417969 0-8 3.582031-8 8s3.582031 8 8 8h400c4.417969 0 8-3.582031 8-8s-3.582031-8-8-8zm0 0" data-original="#000000" class="active-path" data-old_color="#000000" fill="#4486FF"/><path d="m40 64h24c4.417969 0 8-3.582031 8-8s-3.582031-8-8-8h-24c-4.417969 0-8 3.582031-8 8s3.582031 8 8 8zm0 0" data-original="#000000" class="active-path" data-old_color="#000000" fill="#4486FF"/><path d="m108.480469 280.070312c20.734375-25.292968 11.757812-71.679687 11.359375-73.597656-.992188-4.195312-5.128906-6.851562-9.355469-6.007812-4.226563.847656-7.023437 4.890625-6.324219 9.144531 2.253906 11.292969 5.214844 44.175781-8.054687 60.359375-6.003907 6.960938-14.9375 10.679688-24.105469 10.03125-15.40625 0-26.558594-5.519531-30.59375-15.152344-2.5625-5.34375-1.746094-11.699218 2.082031-16.222656 5.046875-3.957031 12-4.429688 17.535157-1.191406 4.105468 1.640625 8.765624-.351563 10.410156-4.457032 1.640625-4.105468-.351563-8.765624-4.457032-10.410156-11.5-5.832031-25.410156-3.902344-34.886718 4.839844-8.316406 9.132812-10.453125 22.3125-5.441406 33.601562 6.550781 15.65625 23.503906 24.992188 45.351562 24.992188 13.980469.691406 27.480469-5.203125 36.480469-15.929688zm0 0" data-original="#000000" class="active-path" data-old_color="#000000" fill="#4486FF"/><path d="m175.785156 206.167969c-.585937-2.855469-2.675781-5.164063-5.457031-6.03125-2.78125-.867188-5.816406-.152344-7.917969 1.863281-2.101562 2.015625-2.941406 5.015625-2.195312 7.832031.21875.910157 20.433594 91.121094-60.550782 143.449219-2.480468 1.511719-3.945312 4.253906-3.828124 7.15625.121093 2.902344 1.804687 5.515625 4.402343 6.820312 2.597657 1.304688 5.695313 1.097657 8.097657-.539062 90.367187-58.390625 67.664062-159.519531 67.449218-160.550781zm0 0" data-original="#000000" class="active-path" data-old_color="#000000" fill="#4486FF"/><path d="m214.785156 200.097656c-4.367187.671875-7.359375 4.753906-6.6875 9.117188.148438 1.007812 14.886719 101.714844-38.648437 178.199218-1.742188 2.339844-2.078125 5.441407-.871094 8.09375 1.207031 2.65625 3.761719 4.441407 6.667969 4.667969 2.910156.222657 5.707031-1.152343 7.304687-3.589843 57.183594-81.691407 42.035157-185.425782 41.351563-189.800782-.671875-4.367187-4.753906-7.359375-9.117188-6.6875zm0 0" data-original="#000000" class="active-path" data-old_color="#000000" fill="#4486FF"/><path d="m48 320c-13.253906 0-24 10.746094-24 24s10.746094 24 24 24 24-10.746094 24-24-10.746094-24-24-24zm0 32c-4.417969 0-8-3.582031-8-8s3.582031-8 8-8 8 3.582031 8 8-3.582031 8-8 8zm0 0" data-original="#000000" class="active-path" data-old_color="#000000" fill="#4486FF"/><path d="m453.351562 271.03125c5.722657-11.449219 3.308594-25.292969-5.957031-34.128906-9.261719-8.832032-23.203125-10.59375-34.371093-4.335938-4.105469 1.644532-6.097657 6.304688-4.457032 10.410156 1.644532 4.105469 6.304688 6.097657 10.410156 4.457032 5.535157-3.238282 12.488282-2.765625 17.535157 1.191406 3.828125 4.523438 4.644531 10.878906 2.082031 16.222656-4.035156 9.632813-15.1875 15.152344-30.59375 15.152344-9.164062.636719-18.089844-3.089844-24.089844-10.046875-15.949218-19.425781-8.140625-60-8.0625-60.394531.871094-4.332032-1.929687-8.550782-6.261718-9.421875-4.335938-.875-8.554688 1.929687-9.425782 6.261719-.398437 1.960937-9.375 48.34375 11.359375 73.601562 8.984375 10.75 22.484375 16.671875 36.480469 16 21.847656 0 38.800781-9.335938 45.351562-24.96875zm0 0" data-original="#000000" class="active-path" data-old_color="#000000" fill="#4486FF"/><path d="m319.871094 209.425781c.789062-4.347656-2.09375-8.511719-6.441406-9.300781-4.347657-.789062-8.511719 2.09375-9.300782 6.441406-.6875 3.785156-15.800781 93.496094 74.808594 167.625 2.207031 1.863282 5.246094 2.390625 7.949219 1.382813 2.707031-1.007813 4.660156-3.394531 5.109375-6.246094.453125-2.851563-.667969-5.726563-2.933594-7.519531-82.796875-67.746094-69.414062-151.089844-69.191406-152.382813zm0 0" data-original="#000000" class="active-path" data-old_color="#000000" fill="#4486FF"/><path d="m272 208.550781c.304688-4.417969-3.03125-8.246093-7.449219-8.550781s-8.246093 3.03125-8.550781 7.449219c-.28125 4-6.566406 98.582031 17.910156 155.703125 1.261719 2.941406 4.160156 4.851562 7.363282 4.847656 1.082031.003906 2.152343-.21875 3.140624-.648438 4.0625-1.742187 5.941407-6.441406 4.203126-10.503906-22.929688-53.542968-16.707032-147.34375-16.617188-148.296875zm0 0" data-original="#000000" class="active-path" data-old_color="#000000" fill="#4486FF"/><path d="m440 352c-13.253906 0-24 10.746094-24 24s10.746094 24 24 24 24-10.746094 24-24-10.746094-24-24-24zm0 32c-4.417969 0-8-3.582031-8-8s3.582031-8 8-8 8 3.582031 8 8-3.582031 8-8 8zm0 0" data-original="#000000" class="active-path" data-old_color="#000000" fill="#4486FF"/></g> </svg>
