<?xml version="1.0"?>
<svg xmlns="http://www.w3.org/2000/svg" id="Line_cutting_cutting_Ex" data-name="Line cutting cutting Ex" width="512" height="512" viewBox="0 0 512 512"><g><path d="M469.282,344.03A27.839,27.839,0,0,0,472,332V292a28.032,28.032,0,0,0-28-28H431.889A18.026,18.026,0,0,0,414,248H160a8,8,0,0,0-8,8v8H130.641a28.016,28.016,0,0,0,2.487-15.473l-11-88A28.044,28.044,0,0,0,94.345,136H84a27.839,27.839,0,0,0-12.03,2.718A28.034,28.034,0,0,0,44,112H24a8,8,0,0,0-8,8v40H32V128H44a12.013,12.013,0,0,1,12,12V408H32V176H16V464a8,8,0,0,0,8,8H43.17a47.938,47.938,0,0,0,45.537-32.821L93.766,424H368V408H72V360H468a12.013,12.013,0,0,1,12,12v36H384v16h34.234l5.059,15.18A47.939,47.939,0,0,0,468.83,472H488a8,8,0,0,0,8-8V372A28.034,28.034,0,0,0,469.282,344.03ZM76.9,424l-3.373,10.119A31.957,31.957,0,0,1,43.17,456H32V424ZM416,266v46H216V264H414A2,2,0,0,1,416,266Zm-248-2h32v48H168ZM84,152H94.345a12.019,12.019,0,0,1,11.906,10.512l11,88A12,12,0,0,1,105.345,264H72V164A12.013,12.013,0,0,1,84,152ZM72,344V280h80v40a8,8,0,0,0,8,8H424a8,8,0,0,0,8-8V280h12a12.013,12.013,0,0,1,12,12v40a12.013,12.013,0,0,1-12,12ZM480,456H468.83a31.957,31.957,0,0,1-30.357-21.88L435.1,424H480Z"/><path d="M285.85,202.174l16.59,9.074,9.075,16.591a8,8,0,0,0,14.037,0l9.074-16.591,16.591-9.074a8,8,0,0,0,0-14.037l-16.591-9.074-9.074-16.59a8,8,0,0,0-14.037,0l-9.075,16.59-16.59,9.074a8,8,0,0,0,0,14.037Zm26.324-10.2a8,8,0,0,0,3.18-3.18l3.179-5.814,3.18,5.814a8,8,0,0,0,3.18,3.18l5.812,3.178-5.812,3.18a7.989,7.989,0,0,0-3.18,3.18l-3.18,5.813-3.179-5.813a8,8,0,0,0-3.18-3.18l-5.813-3.18Z"/><path d="M188.161,115.863l16.591,9.074,9.074,16.59a8,8,0,0,0,14.037,0l9.074-16.59,16.59-9.074a8,8,0,0,0,0-14.037l-16.59-9.074-9.074-16.591a8,8,0,0,0-14.037,0l-9.074,16.591-16.591,9.074a8,8,0,0,0,0,14.037Zm26.324-10.2a7.989,7.989,0,0,0,3.18-3.18l3.18-5.812,3.178,5.812a8,8,0,0,0,3.18,3.18l5.813,3.18-5.813,3.178a8,8,0,0,0-3.18,3.18l-3.178,5.813-3.18-5.813a8,8,0,0,0-3.18-3.18l-5.812-3.178Z"/><path d="M338.473,83.863l16.59,9.074,9.074,16.59a8,8,0,0,0,14.037,0l9.074-16.59,16.591-9.074a8,8,0,0,0,0-14.037l-16.591-9.074-9.074-16.591a8,8,0,0,0-14.037,0l-9.074,16.591-16.59,9.074a8,8,0,0,0,0,14.037Zm26.324-10.2a8,8,0,0,0,3.18-3.18l3.178-5.812,3.18,5.812a7.989,7.989,0,0,0,3.18,3.18l5.812,3.18-5.812,3.178a8,8,0,0,0-3.18,3.18l-3.18,5.813L367.977,83.2a8,8,0,0,0-3.18-3.18l-5.813-3.178Z"/></g></svg>
