<?xml version="1.0"?>
<svg xmlns="http://www.w3.org/2000/svg" id="Layer_3" enable-background="new 0 0 64 64" height="512px" viewBox="0 0 64 64" width="512px"><g><g><path d="m58 7h-52c-2.757 0-5 2.243-5 5v14c0 2.757 2.243 5 5 5h52c2.757 0 5-2.243 5-5v-14c0-2.757-2.243-5-5-5zm-49 2h46v1c0 .551-.448 1-1 1h-44c-.552 0-1-.449-1-1zm46 16h-46v-1c0-.551.448-1 1-1h44c.552 0 1 .449 1 1zm-46 2h46v2h-46zm52-1c0 1.654-1.346 3-3 3h-1v-5c0-1.654-1.346-3-3-3h-44c-1.654 0-3 1.346-3 3v5h-1c-1.654 0-3-1.346-3-3v-14c0-1.654 1.346-3 3-3h1v1c0 1.654 1.346 3 3 3h44c1.654 0 3-1.346 3-3v-1h1c1.654 0 3 1.346 3 3z" data-original="#000000" class="active-path" data-old_color="#000000" fill="#4486FF"/><path d="m28 16h8v2h-8z" data-original="#000000" class="active-path" data-old_color="#000000" fill="#4486FF"/><path d="m26 53c0 1.103-.897 2-2 2s-2-.897-2-2 .897-2 2-2v-2c-2.206 0-4 1.794-4 4s1.794 4 4 4 4-1.794 4-4v-16h-2z" data-original="#000000" class="active-path" data-old_color="#000000" fill="#4486FF"/><path d="m40 49v2c1.103 0 2 .897 2 2s-.897 2-2 2-2-.897-2-2v-16h-2v16c0 2.206 1.794 4 4 4s4-1.794 4-4-1.794-4-4-4z" data-original="#000000" class="active-path" data-old_color="#000000" fill="#4486FF"/><path d="m31 33h2v20h-2z" data-original="#000000" class="active-path" data-old_color="#000000" fill="#4486FF"/><path d="m15.293 39.293-1.707 1.707h-1.586v-1.586l1.707-1.707-1.414-1.414-1.293 1.293-1.293-1.293-1.414 1.414 1.707 1.707v1.586h-1.586l-1.707-1.707-1.414 1.414 1.293 1.293-1.293 1.293 1.414 1.414 1.707-1.707h1.586v1.586l-1.707 1.707 1.414 1.414 1.293-1.293 1.293 1.293 1.414-1.414-1.707-1.707v-1.586h1.586l1.707 1.707 1.414-1.414-1.293-1.293 1.293-1.293z" data-original="#000000" class="active-path" data-old_color="#000000" fill="#4486FF"/><path d="m57.293 37.293-1.707 1.707h-1.586v-1.586l1.707-1.707-1.414-1.414-1.293 1.293-1.293-1.293-1.414 1.414 1.707 1.707v1.586h-1.586l-1.707-1.707-1.414 1.414 1.293 1.293-1.293 1.293 1.414 1.414 1.707-1.707h1.586v1.586l-1.707 1.707 1.414 1.414 1.293-1.293 1.293 1.293 1.414-1.414-1.707-1.707v-1.586h1.586l1.707 1.707 1.414-1.414-1.293-1.293 1.293-1.293z" data-original="#000000" class="active-path" data-old_color="#000000" fill="#4486FF"/></g></g> </svg>
