<?xml version="1.0"?>
<svg xmlns="http://www.w3.org/2000/svg" height="512px" viewBox="0 0 480 480" width="512px" class=""><g><path d="m112 448h256c4.417969 0 8-3.582031 8-8v-160c0-4.417969-3.582031-8-8-8h-256c-4.417969 0-8 3.582031-8 8v160c0 4.417969 3.582031 8 8 8zm248-16h-112v-144h112zm-240-144h112v144h-112zm0 0" data-original="#000000" class="active-path" data-old_color="#000000" fill="#4486FF"/><path d="m200 344h16v32h-16zm0 0" data-original="#000000" class="active-path" data-old_color="#000000" fill="#4486FF"/><path d="m264 344h16v32h-16zm0 0" data-original="#000000" class="active-path" data-old_color="#000000" fill="#4486FF"/><path d="m472 208h-16.207031c5.292969-6.882812 8.175781-15.316406 8.207031-24v-16c-.027344-22.082031-17.917969-39.972656-40-40-4.417969 0-8 3.582031-8 8v.207031c-6.882812-5.292969-15.316406-8.175781-24-8.207031-4.417969 0-8 3.582031-8 8v.207031c-6.882812-5.292969-15.316406-8.175781-24-8.207031-4.417969 0-8 3.582031-8 8v.207031c-6.882812-5.292969-15.316406-8.175781-24-8.207031-4.417969 0-8 3.582031-8 8v.207031c-6.882812-5.292969-15.316406-8.175781-24-8.207031-4.417969 0-8 3.582031-8 8v72h-40v-80c0-17.671875-14.328125-32-32-32s-32 14.328125-32 32v16h16v-16c0-8.835938 7.164062-16 16-16s16 7.164062 16 16v80h-160v-18.34375c-.007812-1.5.589844-2.941406 1.65625-4 4.078125-4.050781 6.359375-9.566406 6.34375-15.3125v-2.34375c0-13.253906-10.746094-24-24-24v-16h-16v16c-13.253906 0-24 10.746094-24 24v2.34375c-.015625 5.746094 2.265625 11.261719 6.34375 15.3125 1.066406 1.058594 1.664062 2.5 1.65625 4v18.34375h-16c-4.417969 0-8 3.582031-8 8v32c0 4.417969 3.582031 8 8 8h8v216c0 4.417969 3.582031 8 8 8h432c4.417969 0 8-3.582031 8-8v-216h8c4.417969 0 8-3.582031 8-8v-32c0-4.417969-3.582031-8-8-8zm-40-62.632812c9.582031 3.402343 15.988281 12.464843 16 22.632812v16c-.011719 10.167969-6.417969 19.230469-16 22.632812zm-32 0c9.582031 3.402343 15.988281 12.464843 16 22.632812v16c-.011719 10.167969-6.417969 19.230469-16 22.632812zm-32 0c9.582031 3.402343 15.988281 12.464843 16 22.632812v16c-.011719 10.167969-6.417969 19.230469-16 22.632812zm-32 0c9.582031 3.402343 15.988281 12.464843 16 22.632812v16c-.011719 10.167969-6.417969 19.230469-16 22.632812zm-32 0c9.582031 3.402343 15.988281 12.464843 16 22.632812v16c-.011719 10.167969-6.417969 19.230469-16 22.632812zm-270.34375 28.976562c-1.066406-1.058594-1.664062-2.5-1.65625-4v-2.34375c0-4.417969 3.582031-8 8-8h16c4.417969 0 8 3.582031 8 8v2.34375c.007812 1.5-.589844 2.941406-1.65625 4-4.078125 4.050781-6.359375 9.566406-6.34375 15.3125v18.34375h-16v-18.34375c.015625-5.746094-2.265625-11.261719-6.34375-15.3125zm414.34375 289.65625h-416v-208h416zm16-224h-448v-16h448zm0 0" data-original="#000000" class="active-path" data-old_color="#000000" fill="#4486FF"/><path d="m472 0h-464c-4.417969 0-8 3.582031-8 8v64c0 4.417969 3.582031 8 8 8h464c4.417969 0 8-3.582031 8-8v-64c0-4.417969-3.582031-8-8-8zm-456 16h216v48h-216zm448 48h-216v-48h216zm0 0" data-original="#000000" class="active-path" data-old_color="#000000" fill="#4486FF"/><path d="m200 32h16v16h-16zm0 0" data-original="#000000" class="active-path" data-old_color="#000000" fill="#4486FF"/><path d="m264 32h16v16h-16zm0 0" data-original="#000000" class="active-path" data-old_color="#000000" fill="#4486FF"/></g> </svg>
