<?xml version="1.0"?>
<svg xmlns="http://www.w3.org/2000/svg" xmlns:xlink="http://www.w3.org/1999/xlink" version="1.1" id="Capa_1" x="0px" y="0px" viewBox="0 0 512 512" style="enable-background:new 0 0 512 512;" xml:space="preserve" width="512px" height="512px" class=""><g><g>
	<g>
		<path d="M512,262.15h-18.237l-1.24-43.297h2.421l16.236-44.281h-19.936l-1.412-49.303l15.948-38.276h-33.211V65.551    c8.59-3.047,14.76-11.249,14.76-20.871s-6.171-17.825-14.76-20.871V3.843h-14.76v19.966c-8.59,3.047-14.76,11.249-14.76,20.871    s6.171,17.825,14.76,20.871v21.442h-33.211l15.948,38.276l-1.412,49.303h-19.937l16.237,44.281h2.421l-1.24,43.297h-17.009    l15.627,48.086l-2.999,104.439h-25.159v-50.033c2.719-6.166,4.114-12.724,4.114-19.526c0-24.248-17.878-44.399-41.144-47.964    v-42.873h-14.76v42.873c-7.743,1.187-14.882,4.22-20.972,8.621v-61.537c5.545-11.995,8.364-24.814,8.364-38.125    c0-47.706-36.891-86.953-83.642-90.723V59.932h-14.76v55.455c-46.751,3.77-83.642,43.017-83.642,90.723    c0,13.311,2.819,26.13,8.364,38.125v61.1c-5.953-4.163-12.873-7.037-20.358-8.184v-42.873h-14.76v42.873    c-23.266,3.565-41.144,23.716-41.144,47.964c0,6.803,1.395,13.36,4.114,19.526v50.033H78.948L75.95,310.303l16.853-48.152H74.567    l-1.24-43.297h2.421l16.237-44.281H72.048l-1.412-49.303l15.948-38.276H53.373V65.551c8.59-3.047,14.76-11.249,14.76-20.871    s-6.171-17.825-14.76-20.871V3.843h-14.76v19.966c-8.59,3.047-14.76,11.249-14.76,20.871s6.171,17.825,14.76,20.871v21.442H5.4    l15.948,38.276l-1.412,49.303H0l16.236,44.281h2.421l-1.24,43.297H0.408l15.627,48.086l-5.684,197.922h490.476l-5.682-197.855    L512,262.15z M38.611,44.68c0-4.07,3.311-7.38,7.38-7.38c4.07,0,7.38,3.31,7.38,7.38s-3.31,7.38-7.38,7.38    S38.611,48.75,38.611,44.68z M64.442,101.753l-6.15,14.76H33.691l-6.15-14.76H64.442z M57.28,174.572H34.703l1.24-43.297H56.04    L57.28,174.572z M70.85,189.332l-5.412,14.76H26.546l-5.412-14.76H70.85z M59.799,262.15H32.184l1.24-43.297H58.56L59.799,262.15z     M25.542,493.397l5.087-177.125h30.724l5.086,177.125H25.542z M63.388,301.511H28.721l-7.995-24.601h51.273L63.388,301.511z     M362.664,311.352c18.617,0,33.764,15.146,33.764,33.764c0,3.549-0.55,7-1.615,10.312h-47.217v-0.286h-17.172    c-1.005-3.224-1.524-6.578-1.524-10.025C328.9,326.498,344.046,311.352,362.664,311.352z M392.314,370.188v44.487h-44.716v-44.487    H392.314z M251.654,129.848c42.05,0,76.262,34.211,76.262,76.262c0,9.924-1.862,19.518-5.541,28.586h-63.341v-39.952h-14.76    v39.952h-63.34c-3.679-9.068-5.541-18.662-5.541-28.586C175.391,164.058,209.603,129.848,251.654,129.848z M315.187,355.141    h-19.124v-50.033c2.719-6.167,4.114-12.725,4.114-19.526c0-14.336-6.253-27.235-16.171-36.126h35.544v72.228h0.638    c-3.851,6.951-6.05,14.939-6.05,23.432C314.139,348.525,314.5,351.871,315.187,355.141z M219.504,295.894    c-1.065-3.312-1.615-6.762-1.615-10.312c0-18.618,15.146-33.764,33.764-33.764c18.618,0,33.764,15.146,33.764,33.764    c0,3.549-0.55,6.999-1.615,10.312H219.504z M281.303,310.654v44.487h-59.299v-44.487H281.303z M207.243,305.108v50.033h-18.511    c0.688-3.27,1.048-6.616,1.048-10.025c0-8.493-2.199-16.48-6.05-23.432h0.025v-72.228H219.3    c-9.917,8.891-16.171,21.789-16.171,36.126C203.129,292.383,204.524,298.941,207.243,305.108z M126.682,493.397h-18.697V467.32    c0-1.635,4.136-5.509,9.347-8.457c5.216,2.951,9.349,6.823,9.349,8.457V493.397z M155.711,493.397h-14.268V467.32    c0-13.344-17.571-21.888-21.093-23.464l-3.016-1.35l-3.016,1.35c-3.522,1.577-21.093,10.12-21.093,23.464v26.077H81.208    l-1.837-63.962h76.34V493.397z M155.711,414.675h-44.103v-44.487h44.103V414.675z M155.711,355.427h-46.603    c-1.065-3.311-1.615-6.762-1.615-10.312c0-18.618,15.146-33.764,33.764-33.764c18.617,0,33.764,15.146,33.764,33.764    c0,3.447-0.52,6.802-1.524,10.025h-17.786V355.427z M271.951,435.329l-0.617,1.413v54.686h-39.361v-54.686l-0.617-1.413    c-1.223-2.8-1.843-5.776-1.843-8.846c0-7.074,12.294-16.264,22.148-21.331c9.853,5.048,22.134,14.222,22.134,21.331    C273.794,429.553,273.174,432.53,271.951,435.329z M332.836,493.397h-46.741v-53.66c1.633-4.231,2.46-8.682,2.46-13.254    c0-20.494-30.417-34.704-33.886-36.257l-3.015-1.35l-3.015,1.35c-3.469,1.553-33.886,15.762-33.886,36.257    c0,4.572,0.827,9.023,2.46,13.254v53.66h-46.741V369.901h162.365V493.397z M399.258,493.397h-18.697V467.32    c0-1.635,4.136-5.509,9.347-8.457c5.216,2.951,9.349,6.823,9.349,8.457V493.397z M429.971,493.397h-15.953V467.32    c0-13.344-17.571-21.888-21.093-23.464l-3.016-1.35l-3.016,1.35c-3.522,1.577-21.093,10.12-21.093,23.464v26.077h-18.205v-63.962    h84.212L429.971,493.397z M457.808,44.68c0-4.07,3.311-7.38,7.38-7.38c4.07,0,7.38,3.31,7.38,7.38s-3.31,7.38-7.38,7.38    S457.808,48.75,457.808,44.68z M483.638,101.753l-6.15,14.76h-24.601l-6.15-14.76H483.638z M476.477,174.572h-22.578l1.24-43.297    h20.098L476.477,174.572z M490.046,189.332l-5.412,14.76h-38.892l-5.412-14.76H490.046z M478.996,262.15H451.38l1.24-43.297    h25.135L478.996,262.15z M444.739,493.397l5.086-177.125h30.725l5.087,177.125H444.739z M482.584,301.511h-34.667l-7.995-24.601    h51.273L482.584,301.511z" data-original="#000000" class="active-path" data-old_color="#000000" fill="#4484FF"/>
	</g>
</g><g>
	<g>
		<rect x="244.275" y="30.411" width="14.76" height="14.76" data-original="#000000" class="active-path" data-old_color="#000000" fill="#4484FF"/>
	</g>
</g><g>
	<g>
		<path d="M251.654,266.578c-10.478,0-19.004,8.526-19.004,19.004h14.76c0-2.339,1.904-4.243,4.243-4.243    c2.339,0,4.243,1.904,4.243,4.243h14.76C270.657,275.103,262.132,266.578,251.654,266.578z" data-original="#000000" class="active-path" data-old_color="#000000" fill="#4484FF"/>
	</g>
</g><g>
	<g>
		<path d="M251.655,144.607v14.76c16.293,0.001,31.162,8.307,39.775,22.219l12.55-7.77    C292.657,155.527,273.096,144.607,251.655,144.607z" data-original="#000000" class="active-path" data-old_color="#000000" fill="#4484FF"/>
	</g>
</g><g>
	<g>
		<path d="M310.764,189.106l-14.184,4.086c1.172,4.068,1.782,8.297,1.814,12.57l14.76-0.108    C313.113,200.035,312.309,194.468,310.764,189.106z" data-original="#000000" class="active-path" data-old_color="#000000" fill="#4484FF"/>
	</g>
</g><g>
	<g>
		<path d="M212.718,158.531c-14.341,11.755-22.567,29.097-22.567,47.578h14.76c0-14.04,6.256-27.221,17.163-36.162L212.718,158.531z    " data-original="#000000" class="active-path" data-old_color="#000000" fill="#4484FF"/>
	</g>
</g><g>
	<g>
		<path d="M362.664,326.112c-10.479,0-19.004,8.526-19.004,19.004h14.76c0-2.34,1.904-4.243,4.243-4.243    c2.339,0,4.243,1.904,4.243,4.243h14.76C381.667,334.638,373.143,326.112,362.664,326.112z" data-original="#000000" class="active-path" data-old_color="#000000" fill="#4484FF"/>
	</g>
</g><g>
	<g>
		<path d="M141.257,326.112c-10.479,0-19.004,8.526-19.004,19.004h14.76c0-2.339,1.904-4.243,4.243-4.243s4.243,1.904,4.243,4.243    h14.76C160.261,334.637,151.736,326.112,141.257,326.112z" data-original="#000000" class="active-path" data-old_color="#000000" fill="#4484FF"/>
	</g>
</g><g>
	<g>
		<rect x="185.234" y="421.066" width="14.76" height="14.76" data-original="#000000" class="active-path" data-old_color="#000000" fill="#4484FF"/>
	</g>
</g><g>
	<g>
		<rect x="185.234" y="391.545" width="14.76" height="14.76" data-original="#000000" class="active-path" data-old_color="#000000" fill="#4484FF"/>
	</g>
</g><g>
	<g>
		<rect x="185.234" y="450.587" width="14.76" height="14.76" data-original="#000000" class="active-path" data-old_color="#000000" fill="#4484FF"/>
	</g>
</g><g>
	<g>
		<rect x="304.301" y="450.587" width="14.76" height="14.76" data-original="#000000" class="active-path" data-old_color="#000000" fill="#4484FF"/>
	</g>
</g><g>
	<g>
		<rect x="304.301" y="421.066" width="14.76" height="14.76" data-original="#000000" class="active-path" data-old_color="#000000" fill="#4484FF"/>
	</g>
</g><g>
	<g>
		<rect x="304.301" y="391.545" width="14.76" height="14.76" data-original="#000000" class="active-path" data-old_color="#000000" fill="#4484FF"/>
	</g>
</g><g>
	<g>
		<rect x="457.81" y="463.379" width="14.76" height="14.76" data-original="#000000" class="active-path" data-old_color="#000000" fill="#4484FF"/>
	</g>
</g><g>
	<g>
		<rect x="37.629" y="463.379" width="14.76" height="14.76" data-original="#000000" class="active-path" data-old_color="#000000" fill="#4484FF"/>
	</g>
</g><g>
	<g>
		<rect x="244.275" y="325.517" width="14.76" height="14.76" data-original="#000000" class="active-path" data-old_color="#000000" fill="#4484FF"/>
	</g>
</g><g>
	<g>
		<rect x="365.035" y="385.05" width="14.76" height="14.76" data-original="#000000" class="active-path" data-old_color="#000000" fill="#4484FF"/>
	</g>
</g><g>
	<g>
		<rect x="127.756" y="385.05" width="14.76" height="14.76" data-original="#000000" class="active-path" data-old_color="#000000" fill="#4484FF"/>
	</g>
</g></g> </svg>
