<?xml version="1.0"?>
<svg xmlns="http://www.w3.org/2000/svg" height="512px" viewBox="0 -87 459.641 459" width="512px"><g><path d="m156.167969 127.414062c3.714843-.003906 7.402343-.621093 10.917969-1.824218 8.320312-2.894532 15.132812-8.996094 18.921874-16.945313 3.84375-7.882812 4.324219-16.988281 1.324219-25.230469-5.617187-15.746093-22.140625-24.789062-38.433593-21.027343-16.289063 3.765625-27.175782 19.136719-25.320313 35.753906 1.859375 16.613281 15.871094 29.203125 32.589844 29.273437zm0 0" data-original="#000000" class="active-path" data-old_color="#000000" fill="#4486FF"/><path d="m452.636719 141.847656c-20.589844 0-31.363281 6.785156-40.871094 12.773438-9.046875 5.703125-16.859375 10.621094-33.40625 10.621094-15.171875 0-22.921875-4.140626-31.089844-9.222657.332031-.789062.519531-1.632812.546875-2.492187v-118.371094c-.023437-11.484375 9.265625-20.816406 20.75-20.835938 3.867188.007813 7.007813-3.125 7.011719-6.988281.007813-3.867187-3.125-7.003906-6.988281-7.011719-19.21875.027344-34.78125 15.617188-34.773438 34.835938v11.257812h-57v-11.257812c.078125-11.53125 9.445313-20.835938 20.972656-20.835938 3.867188-.007812 6.992188-3.152343 6.984376-7.015624-.011719-3.867188-3.152344-6.992188-7.019532-6.984376-19.25.015626-34.867187 15.585938-34.9375 34.835938v117.199219c.046875.730469.207032 1.449219.472656 2.132812-.070312.042969-.074218.085938-.140624.132813-9.046876 5.699218-16.824219 10.617187-33.375 10.617187-16.546876 0-24.339844-4.921875-33.386719-10.617187-9.382813-5.914063-20.007813-12.601563-40.097657-12.765625-5.800781-5.117188-10.382812-9.386719-15.199218-13.867188-5.574219-5.183593-11.886719-11.0625-21.171875-19.277343-12.3125-10.890626-24.546875-21.890626-35.9375-32.160157-4.972657-4.484375-10.625-6.070312-16.808594-4.726562-7.21875 1.574219-14.4375 3.125-21.664063 4.660156-8.234374 1.753906-16.746093 3.570313-25.121093 5.410156-10.09375 2.226563-16.53125 12.152344-14.449219 22.277344 1.894531 9.894531 11.398438 16.414063 21.308594 14.621094 11.164062-2.085938 22.589844-4.53125 33.957031-7.261719 3.125-.75 3.183594-.671875 4.128906.664062 1.960938 2.699219 4.082031 5.277344 6.355469 7.722657.574219.628906.851562 1.476562.753906 2.320312-.089844.859375-.542968 1.636719-1.25 2.132813l-33.972656 24.078125c-7.464844-3.691407-16.734375-6.601563-30.214844-6.601563-3.867187 0-6.99999975 3.132813-6.99999975 7 0 3.867188 3.13281275 7 6.99999975 7 16.546875 0 24.359375 4.921875 33.402344 10.621094 9.5 5.984375 20.277344 12.773438 40.867188 12.773438 20.585937 0 31.359374-6.789063 40.863281-12.777344 9.046875-5.699219 16.859375-10.617188 33.402343-10.617188 16.542969 0 24.359376 4.921875 33.398438 10.617188 9.5 5.988281 20.277344 12.777344 40.867188 12.777344 20.589843 0 31.363281-6.789063 40.867187-12.773438 9.046875-5.703125 16.859375-10.621094 33.40625-10.621094 16.550781 0 24.363281 4.921875 33.410156 10.621094 9.5 5.984375 20.277344 12.773438 40.867188 12.773438 20.589843 0 31.363281-6.789063 40.867187-12.773438 9.046875-5.703125 16.863282-10.621094 33.410156-10.621094 3.863282 0 7-3.132812 7-7 0-3.867187-3.136718-7-7-7zm-118.820313 6.285156c-9.332031-4.300781-19.511718-6.449218-29.785156-6.285156-11.609375 0-20.214844 2.15625-27.214844 5.113282v-20.546876h57zm0-35.71875h-57v-17h57zm0-31h-57v-21h57zm0 0" data-original="#000000" class="active-path" data-old_color="#000000" fill="#4486FF"/><path d="m452.636719 194.484375c-20.589844 0-31.363281 6.785156-40.871094 12.773437-9.046875 5.699219-16.859375 10.617188-33.40625 10.617188s-24.359375-4.921875-33.40625-10.617188c-9.5-5.988281-20.28125-12.773437-40.871094-12.773437-20.589843 0-31.363281 6.785156-40.863281 12.773437-9.046875 5.699219-16.859375 10.617188-33.40625 10.617188s-24.359375-4.917969-33.402344-10.617188c-9.5-5.988281-20.277344-12.773437-40.863281-12.773437-20.589844 0-31.363281 6.785156-40.867187 12.773437-9.042969 5.699219-16.855469 10.617188-33.402344 10.617188-16.542969 0-24.355469-4.917969-33.398438-10.617188-9.503906-5.988281-20.277344-12.773437-40.867187-12.773437-3.867188 0-7.0000002 3.132813-7.0000002 7 0 3.863281 3.1328122 7 7.0000002 7 16.546875 0 24.359375 4.921875 33.40625 10.617187 9.5 5.988282 20.277343 12.773438 40.863281 12.773438 20.589844 0 31.359375-6.785156 40.867188-12.773438 9.042968-5.699218 16.855468-10.617187 33.398437-10.617187s24.359375 4.921875 33.398437 10.617187c9.5 5.988282 20.28125 12.773438 40.867188 12.773438 20.589844 0 31.363281-6.785156 40.867188-12.773438 9.046874-5.699218 16.859374-10.617187 33.410156-10.617187 16.546875 0 24.359375 4.921875 33.40625 10.617187 9.5 5.988282 20.277344 12.773438 40.867187 12.773438 20.589844 0 31.363281-6.785156 40.871094-12.773438 9.046875-5.699218 16.859375-10.617187 33.40625-10.617187 3.867187 0 7-3.136719 7-7 0-3.867187-3.132813-7-7-7zm0 0" data-original="#000000" class="active-path" data-old_color="#000000" fill="#4486FF"/><path d="m452.636719 247.117188c-20.589844 0-31.363281 6.785156-40.871094 12.773437-9.046875 5.699219-16.859375 10.617187-33.40625 10.617187s-24.359375-4.921874-33.40625-10.621093c-9.5-5.984375-20.28125-12.769531-40.871094-12.769531-20.589843 0-31.363281 6.785156-40.863281 12.773437-9.046875 5.699219-16.859375 10.621094-33.40625 10.621094s-24.359375-4.921875-33.402344-10.621094c-9.5-5.988281-20.277344-12.773437-40.863281-12.773437-20.589844 0-31.363281 6.785156-40.867187 12.773437-9.042969 5.699219-16.855469 10.621094-33.402344 10.621094-16.542969 0-24.355469-4.921875-33.398438-10.621094-9.515625-5.988281-20.289062-12.773437-40.878906-12.773437-3.867188 0-7 3.132812-7 7 0 3.863281 3.132812 7 7 7 16.546875 0 24.359375 4.917968 33.40625 10.617187 9.5 5.988281 20.277344 12.773437 40.863281 12.773437 20.589844 0 31.359375-6.785156 40.867188-12.773437 9.042969-5.699219 16.855469-10.617187 33.398437-10.617187 16.542969 0 24.359375 4.917968 33.398438 10.617187 9.5 5.988281 20.28125 12.773437 40.867187 12.773437 20.589844 0 31.363281-6.785156 40.867188-12.773437 9.046875-5.699219 16.859375-10.617187 33.40625-10.617187 16.550781 0 24.363281 4.917968 33.410156 10.617187 9.5 5.988281 20.277344 12.773437 40.867187 12.773437 20.589844 0 31.363282-6.785156 40.871094-12.773437 9.046875-5.699219 16.859375-10.617187 33.40625-10.617187 3.867188 0 7-3.136719 7-7 0-3.867188-3.132812-7-7-7zm0 0" data-original="#000000" class="active-path" data-old_color="#000000" fill="#4486FF"/></g> </svg>
