<?xml version="1.0"?>
<svg xmlns="http://www.w3.org/2000/svg" height="512px" viewBox="0 -51 512 511" width="512px" class=""><g><path d="m512 86.269531v-72.269531c0-3.949219-1.722656-7.6875-4.722656-10.257812-2.386719-2.042969-5.378906-3.152344-8.46875-3.21875-.792969-.019532-1.59375.015624-2.390625.140624-4.03125.628907-9.316407 1.4375-15.652344 2.371094-19.003906 2.789063-48.929687 6.894532-83.433594 10.582032-.074219.007812-.144531.03125-.21875.042968-43.6875 4.667969-94.644531 8.667969-141.117187 8.667969-34.511719 0-75.175782-2.230469-120.863282-6.632813-4.121093-.386718-7.785156 2.625-8.183593 6.746094-.398438 4.121094 2.625 7.78125 6.742187 8.179688 46.164063 4.445312 87.316406 6.699218 122.304688 6.699218 46.242187 0 96.796875-3.898437 140.410156-8.511718l100.59375 61.65625v200.277344c0-3.125-92.375-12.144532-98.871094-12.835938-47.214844-5.03125-94.65625-8.738281-142.132812-8.738281-21.878906 0-43.183594.839843-64.796875 2.152343-10.839844.660157-21.675781 1.445313-32.5 2.335938-20.371094 1.675781-40.710938 3.714844-61.015625 6.035156-27.625 3.160156-55.207032 6.800782-82.683594 11.050782v-274.992188c14.839844 2.304688 43.472656 6.519531 79.234375 10.671875l4.890625.5625c4.113281.476563 7.832031-2.480469 8.300781-6.597656.46875-4.113281-2.484375-7.828125-6.597656-8.300781l-4.867187-.558594c-36.953126-4.289063-66.222657-8.648438-80.378907-10.863282-3.902343-.6132808-7.855469.507813-10.855469 3.074219-3 2.570313-4.72265575 6.308594-4.72265575 10.261719v285.414062c0 .039063-.00390625.070313-.00390625.109376v29.644531c0 3.949219 1.71875 7.6875 4.722656 10.253906 2.996094 2.566406 6.953125 3.683594 10.855469 3.078125 28.378906-4.441406 118.484375-17.660156 203.898437-20.929688 5.335938 10.742188 8.691407 24.941407 9.519532 40.253907h-82.628906c-6.890626 0-12.496094 5.605469-12.496094 12.496093v22.992188c0 6.890625 5.605468 12.496094 12.496094 12.496094h219.261718c6.890625 0 12.496094-5.605469 12.496094-12.496094v-22.992188c0-6.890624-5.605469-12.496093-12.496094-12.496093h-28.160156c-4.140625 0-7.496094 3.355469-7.496094 7.5 0 4.140625 3.355469 7.496093 7.496094 7.496093h25.664062v17.992188h-214.265624v-17.992188h154.367187c4.140625 0 7.496094-3.355468 7.496094-7.496093 0-4.144531-3.355469-7.5-7.496094-7.5h-20.230469c.828125-15.3125 4.183594-29.511719 9.519532-40.253907 85.414062 3.265626 175.519531 16.488282 203.902343 20.929688.695313.109375 1.394531.164062 2.089844.164062 3.191406 0 6.300781-1.132812 8.761719-3.242187 3-2.566406 4.722656-6.304687 4.722656-10.253906v-29.644531c0-.039063-.003906-.074219-.003906-.109376v-213.070312c-.003906-.027344.003906-.050781.003906-.074219zm-91.324219-60.171875c23.996094-2.820312 44.796875-5.675781 60.0625-7.902344 6.71875-.980468 12.222657-1.816406 16.261719-2.441406v57.125zm-152.6875 335.726563h-23.980469c-.738281-14.878907-3.652343-29.027344-8.351562-40.75 6.847656-.152344 13.644531-.238281 20.34375-.238281s13.496094.085937 20.351562.238281c-4.699218 11.726562-7.625 25.867187-8.363281 40.75zm229.015625-34.410157c-34.886718-5.417968-146.929687-21.574218-241.003906-21.574218s-206.121094 16.160156-241.007812 21.574218v-21.492187c21.550781-3.375 95.558593-14.394531 172.179687-19.332031.378906-.023438.761719-.046875 1.144531-.070313 9.523438-.609375 19.058594-1.117187 28.59375-1.503906 13.054688-.53125 26.003906-.851563 39.085938-.851563 76.242187 0 152.480468 8.589844 227.808594 19.75 4.402343.652344 8.800781 1.316407 13.199218 2.007813zm0 0" data-original="#000000" class="active-path" data-old_color="#000000" fill="#4486FF"/><path d="m408.164062 177.535156c-3.390624-2.375-8.066406-1.554687-10.445312 1.835938l-11.902344 16.976562c-2.378906 3.390625-1.558594 8.0625 1.832032 10.441406 1.308593.917969 2.8125 1.359376 4.296874 1.359376 2.363282 0 4.6875-1.113282 6.148438-3.191407l11.902344-16.976562c2.378906-3.390625 1.558594-8.066407-1.832032-10.445313zm0 0" data-original="#000000" class="active-path" data-old_color="#000000" fill="#4486FF"/><path d="m400.066406 234.828125c1.308594.917969 2.8125 1.359375 4.296875 1.359375 2.363281 0 4.6875-1.113281 6.144531-3.195312l28.359376-40.4375c2.378906-3.390626 1.558593-8.066407-1.832032-10.441407-3.394531-2.378906-8.066406-1.5625-10.445312 1.832031l-28.355469 40.441407c-2.378906 3.390625-1.558594 8.066406 1.832031 10.441406zm0 0" data-original="#000000" class="active-path" data-old_color="#000000" fill="#4486FF"/><path d="m83.476562 67.96875c-3.390624-2.375-8.066406-1.558594-10.445312 1.835938l-7.851562 11.199218c-2.375 3.386719-1.554688 8.0625 1.832031 10.441406 1.3125.917969 2.8125 1.359376 4.300781 1.359376 2.359375 0 4.6875-1.113282 6.144531-3.195313l7.851563-11.195313c2.378906-3.390624 1.558594-8.066406-1.832032-10.445312zm0 0" data-original="#000000" class="active-path" data-old_color="#000000" fill="#4486FF"/><path d="m97.988281 75.402344-18.0625 25.757812c-2.378906 3.390625-1.558593 8.066406 1.832031 10.445313 1.308594.917969 2.8125 1.359375 4.300782 1.359375 2.359375 0 4.683594-1.113282 6.144531-3.195313l18.0625-25.757812c2.375-3.390625 1.554687-8.0625-1.835937-10.441407-3.386719-2.378906-8.066407-1.558593-10.441407 1.832032zm0 0" data-original="#000000" class="active-path" data-old_color="#000000" fill="#4486FF"/></g> </svg>
